<svg width="375" height="459" viewBox="0 0 375 459" fill="none" xmlns="http://www.w3.org/2000/svg">
<path d="M4 150.179C89.6128 210.837 286.671 262.323 390 -17" stroke="#FFD5CF"/>
<path d="M448 185.5C448 335.445 328.236 457 180.5 457C32.7638 457 -87 335.445 -87 185.5C-87 35.5547 43.2638 -237 191 -237C338.736 -237 448 35.5547 448 185.5Z" fill="#FFEFED"/>
<path d="M1 291C12.5156 267.681 53.2268 224.885 123.946 240.248C212.346 259.451 361.71 271.796 380 136" stroke="#FFD5CF"/>
<path d="M78.2058 236.577C83.8577 239.187 99.4001 245.745 106.465 248.698L142.731 279C165.338 276.824 210.835 269.863 211.965 259.42C213.378 246.367 170.99 241.238 171.461 236.577C171.932 231.915 186.532 231.448 189.358 216.996C191.619 205.435 164.867 193.842 151.208 189.491C144.458 186.383 131.333 178.396 132.84 171.31C134.724 162.452 151.679 161.053 153.563 156.858C155.07 153.501 146.97 149.554 142.731 148C150.266 152.196 143.673 156.858 134.253 160.587C124.833 164.317 120.594 171.31 123.891 181.566C127.188 191.822 137.079 194.153 146.97 203.943C156.86 213.733 137.55 218.861 127.659 218.861C117.768 218.861 97.0452 216.997 80.0898 222.125C63.1343 227.253 71.1411 233.313 78.2058 236.577Z" fill="white"/>
<path d="M61.0146 259C59.0146 262.6 60.1813 266.833 61.0146 268.5L68.5146 275.5L90.0146 279C101.681 279.333 125.015 278.3 125.015 271.5C125.015 263 122.015 257 112.015 235C102.015 213 80.5146 198.5 68.5146 202C56.5146 205.5 57.0146 218.5 62.5146 229C68.0146 239.5 61.0146 236 55.5146 236.5C50.0145 237 46.5146 246 55.5146 249C64.5146 252 63.5146 254.5 61.0146 259Z" fill="#04994C" stroke="#04994C"/>
<path d="M302.497 186.318C306.309 189.417 309.123 196.932 309.87 200.932C310.324 196.674 309.031 187.162 306.006 183.16C302.98 179.158 297.732 182.444 302.497 186.318Z" fill="#04994C"/>
<path d="M313.023 196.636C314.85 193.808 322.075 186.269 323.549 189.125C325.023 191.981 316.963 191.702 313.023 196.636Z" fill="#04994C"/>
<path d="M309.515 206.385C312.835 202.296 326.415 191.685 329.727 196.223C333.039 200.76 316.819 199.344 309.515 206.385Z" fill="#04994C"/>
<path d="M305.922 213.364C312.233 208.754 335.733 198.665 338.768 206.429C341.804 214.193 319.066 206.024 305.922 213.364Z" fill="#04994C"/>
<path d="M305.23 210.887C306.722 197.642 295.305 182.113 291.13 186.052C286.956 189.99 302.184 195.436 305.23 210.887Z" fill="#04994C"/>
<path d="M301.91 217.152C300.804 201.797 283.488 186.22 279.278 191.474C275.068 196.728 294.797 200.121 301.91 217.152Z" fill="#04994C"/>
<path d="M295.594 225.572C294.489 210.218 277.173 194.641 272.963 199.895C268.753 205.149 288.481 208.542 295.594 225.572Z" fill="#04994C"/>
<path d="M289.98 233.291C288.875 217.937 271.559 202.36 267.349 207.614C263.139 212.868 282.867 216.261 289.98 233.291Z" fill="#04994C"/>
<path d="M299.43 222.509C307.177 218.272 335.608 210.511 338.753 219.778C341.898 229.044 315.431 216.247 299.43 222.509Z" fill="#04994C"/>
<path d="M290.568 234.258C298.705 230.028 328.762 222.631 332.336 232.374C335.91 242.118 307.437 228.118 290.568 234.258Z" fill="#04994C"/>
<path d="M310.935 184.609C316.545 202.92 290.831 233.912 278.074 246.903C309.865 218.247 316.182 189.54 316.182 181.406C316.182 170.88 305.655 167.371 310.935 184.609Z" fill="#04994C"/>
<path d="M230 453C220.667 410.667 219.6 319 290 291C378 256 382 248 386 229" stroke="#FFD5CF"/>
<path d="M219 199.552V213H225.925V201.417C225.925 199.292 227.021 197.317 228.825 196.192L248.837 183.716C250.551 182.648 251.008 180.354 249.834 178.71C248.751 177.192 246.667 176.789 245.096 177.795L223.255 191.776C220.604 193.473 219 196.404 219 199.552Z" fill="#7B1618"/>
<path d="M176.718 213L173 222H243L238.564 213H176.718Z" fill="#FF535B" stroke="#FF535B"/>
<path d="M326.5 323C326.5 330.732 281.706 341 232 341C182.294 341 142 334.732 142 327C142 319.268 182.294 313 232 313C305 307 317.5 313 326.5 323Z" fill="#FFD5D0"/>
<path d="M233.154 307.328V301.332L258.014 303.997L309.077 300V314.655C309.077 318.652 303.702 327.312 268.764 327.978C240.813 328.511 233.378 319.318 233.154 314.655V307.328Z" fill="#FD5001"/>
<path d="M232.077 299.824C232.077 297.649 233.867 292.574 234.762 290.308H254.901H307.262C309.276 291.894 313.573 295.746 314.647 298.465C315.989 301.864 313.304 301.864 309.948 299.824C306.591 297.785 306.591 303.903 305.92 307.302C305.248 310.701 293.165 312.74 287.795 309.341C282.424 305.942 276.515 308.68 275.04 312.74C267.346 333.923 262.653 305.88 260.271 310.021C249.307 329.077 253.558 307.302 246.174 310.021C238.79 312.74 241.475 307.302 238.79 303.903C236.104 300.504 232.077 302.543 232.077 299.824Z" fill="#FFDFA2"/>
<path d="M290.093 291.027C287.939 305.236 269.903 302.868 261.154 299.908L262.5 284.879L267.884 281.464L286.728 284.879C288.747 281.009 292.246 276.819 290.093 291.027Z" fill="#7B1618"/>
<path d="M310.016 289.951C307.862 304.16 289.154 302.962 281.077 297.216L282.423 283.803L287.807 280.388L306.651 283.803C308.67 279.932 312.169 275.743 310.016 289.951Z" fill="#EF1C26"/>
<path d="M247.312 303.102C231.611 298.765 232.648 288.643 235.13 284.125L243.928 282.77H263.555L267.615 294.291C267.39 299.036 263.013 307.44 247.312 303.102Z" fill="#EF1C26"/>
<path d="M247.851 300.41C232.149 296.072 233.187 285.951 235.669 281.433L244.467 280.077H264.093L268.154 291.599C267.928 296.343 263.552 304.748 247.851 300.41Z" fill="#EF1C26" stroke="black"/>
<path d="M287.696 297.18C271.995 292.842 273.033 282.721 275.514 278.202L284.312 276.847H303.939L308 288.369C307.774 293.113 303.398 301.517 287.696 297.18Z" fill="#EF1C26" stroke="black"/>
<path d="M232.184 278.421C230.039 274.637 231.291 270.538 232.184 268.962L242.909 271.664C256.986 269.863 285.407 266.124 286.479 265.584C287.552 265.043 303.014 269.412 310.611 271.664C312.622 279.096 309.27 292.608 307.259 286.528C305.248 280.447 303.908 286.528 299.215 292.608C294.523 298.689 292.512 296.662 286.479 298.013C280.447 299.365 281.117 294.635 278.436 294.635C275.754 294.635 272.403 299.365 270.392 299.365C268.381 299.365 268.381 298.013 265.7 294.635C263.019 291.257 262.348 296.662 256.986 299.365C251.623 302.067 254.975 295.311 250.283 294.635C245.59 293.96 242.909 293.284 240.898 288.555C238.887 283.826 236.206 288.555 233.525 286.528C230.844 284.501 234.866 283.15 232.184 278.421Z" fill="#04994C"/>
<path d="M272.993 230.035C241.87 228.955 232.747 252.98 232.077 265.127C233.15 285.102 258.46 288.296 270.98 287.396C298.884 289.555 311.226 281.692 311.226 267.826C311.449 255.679 304.116 231.115 272.993 230.035Z" fill="#FD5001" stroke="#FD5001"/>
<path d="M268.154 238.7C268.692 237.982 270.2 236.653 271.923 237.084C274.077 237.623 269.231 239.507 268.154 238.7Z" fill="#FFDFA2"/>
<path d="M273.791 266.194C272.951 265.879 271.253 264.804 271.182 263.03C271.095 260.811 274.264 264.934 273.791 266.194Z" fill="#FFDFA2"/>
<path d="M265.49 251.482C265.169 250.644 264.848 248.661 266.13 247.432C267.733 245.896 266.747 251.001 265.49 251.482Z" fill="#FFDFA2"/>
<path d="M297.832 260.952C296.958 260.749 295.135 259.903 294.835 258.153C294.461 255.964 298.137 259.641 297.832 260.952Z" fill="#FFDFA2"/>
<path d="M278.281 246.154C277.313 246.278 275.189 246.12 274.437 244.498C273.497 242.469 278.275 244.741 278.281 246.154Z" fill="#FFDFA2"/>
<path d="M284.308 249.754C284.711 249.143 285.84 248.013 287.13 248.379C288.743 248.838 285.114 250.442 284.308 249.754Z" fill="#FFDFA2"/>
<path d="M280 236.775C280.538 235.961 282.043 234.453 283.763 234.942C285.913 235.553 281.075 237.692 280 236.775Z" fill="#FFDFA2"/>
<path d="M290.509 242.815C289.611 242.812 287.646 242.396 286.963 240.756C286.109 238.707 290.514 241.469 290.509 242.815Z" fill="#FFDFA2"/>
<path d="M258.135 247.057C257.401 246.54 256.029 245.072 256.408 243.337C256.882 241.168 258.91 245.956 258.135 247.057Z" fill="#FFDFA2"/>
<path d="M252.035 254.097C251.219 254.469 249.26 254.914 247.953 253.712C246.319 252.208 251.476 252.872 252.035 254.097Z" fill="#FFDFA2"/>
<path d="M248.728 242.16C249.242 241.425 250.704 240.047 252.441 240.42C254.611 240.886 249.831 242.932 248.728 242.16Z" fill="#FFDFA2"/>
<path d="M233 337V331H190V337H233Z" fill="#FFDFA2" stroke="#FFF1D5"/>
<path d="M235.084 332L245 238H173L186.796 332H235.084Z" fill="#FEB63B"/>
<path d="M169.236 222L165 238H251L246.34 222H169.236Z" fill="#FFDFA2"/>
<circle cx="130" cy="260" r="30" fill="#FD5001"/>
<path d="M176 458C181 382.333 123 237 2 329" stroke="#FFD5CF"/>
<path d="M120.672 240C115.151 242.447 105.366 251.517 110.392 268.229C116.674 289.118 152.654 279.52 150.941 260.325C149.227 241.129 129.81 239.435 124.67 242.823C119.53 246.21 115.532 249.033 114.961 258.631C114.39 268.229 123.528 280.65 137.805 273.31C152.083 265.971 144.659 246.808 132.094 246.775C119.53 246.742 117.245 262.019 124.67 266.535C132.094 271.052 137.805 263.712 137.234 259.196C136.663 254.679 133.236 253.55 130.381 254.114C127.525 254.679 125.812 258.066 128.668 260.325" stroke="#7B1618" stroke-width="2" stroke-linecap="round"/>
<mask id="mask0_801_428" style="mask-type:alpha" maskUnits="userSpaceOnUse" x="-60" y="181" width="508" height="276">
<path d="M448 188.987C448 337.006 328.236 457 180.5 457C32.7639 457 -60 355.02 -60 207C-44 176.892 89.2639 240.813 237 240.813C384.736 240.813 441 154.93 448 188.987Z" fill="#FFEFED"/>
</mask>
<g mask="url(#mask0_801_428)">
<path d="M35 414.574C41.8333 404.407 64.1 387.474 98.5 401.074C141.5 418.074 148 448.573 149 456.573" stroke="#FFD5CF"/>
<path d="M258.5 445.5C259.333 421.167 271.8 371.8 315 369C358.2 366.2 371 388.834 372 400.5" stroke="#FFD5CF"/>
<path d="M158.085 457.061C159.085 422.395 144.585 353.661 78.585 356.061C12.585 358.461 -1.24834 407.061 0.0849983 431.061" stroke="#FFD5CF"/>
</g>
<ellipse cx="135" cy="347.5" rx="70" ry="14.5" fill="#FFD5D0"/>
<path d="M189 349L116.515 355.5L95.0146 266L202.015 262L189 349Z" fill="#EF1C26"/>
<path d="M116.515 355.5L79.5146 341.5L58.5146 254L95.0146 266L116.515 355.5Z" fill="#7B1618"/>
<path d="M52.0146 287.5L58.5 254L95.5146 266L86 303L52.0146 287.5Z" fill="#B94625"/>
<circle cx="209" cy="276" r="20" fill="#FFDFA2"/>
<path d="M112.5 302.5L95.0146 266L198.015 262L214.015 295.5L112.5 302.5Z" fill="#FF535B"/>
<path d="M142.152 326.533L140.921 326.651C140.925 326.674 140.928 326.698 140.932 326.724C140.961 326.924 140.991 327.199 141.004 327.534C141.03 328.202 140.989 329.126 140.725 330.177C140.184 332.323 138.731 334.902 135.301 336.863C129.841 339.984 127.592 341.708 126.542 342.871C125.972 343.496 124.714 344.918 124.238 345.608C122.913 342.73 124.263 340.329 125.103 339.488C125.801 338.715 126.476 338.122 127.569 337.383L128.404 327.719L129.556 327.608C130.96 327.473 132.141 328.623 132.021 330.007L131.59 334.948C132.145 334.628 132.755 334.279 133.426 333.895C135.918 332.471 136.819 330.732 137.152 329.407C137.324 328.723 137.35 328.122 137.333 327.7C137.325 327.49 137.307 327.329 137.292 327.229C137.289 327.203 137.278 327.106 137.268 327.019L137.266 327.002L135.786 327.144L138.793 324.299L142.152 326.533Z" fill="white"/>
<path d="M127.07 343.158L126.865 345.537L128.834 345.348C129.922 345.243 130.781 344.388 130.874 343.315L131.155 340.072L131.157 340.058C129.013 341.439 127.799 342.411 127.07 343.158Z" fill="white"/>
<path d="M136.218 338.133L136.316 336.949C138.553 335.502 139.836 333.782 140.542 332.162L139.538 344.32L138.368 344.432C136.97 344.566 135.791 343.426 135.902 342.047L136.218 338.133Z" fill="white"/>
<path d="M246 448.5C245.334 416.334 255.7 348.6 302.5 335C349.3 321.4 373.334 342.667 379.5 355" stroke="#FFD5CF"/>
<path d="M-0.5 74.4999C11.6667 91.8332 47.1999 121.3 88 84.5001C131.5 45.2652 99 -4.00013 67.5 -3.50013" stroke="#FFD5CF"/>
<path d="M-11 61.5C-5.83333 86.1667 35 138.5 99 114C188 79.9297 142.5 -12.5 125 -29.5" stroke="#FFD5CF"/>
<path d="M271.5 442C275.167 419.667 299.5 373.5 345.5 402" stroke="#FFD5CF"/>
<path d="M0 116C57.6667 157 190.4 191.8 260 3" stroke="#FFD5CF"/>
<path opacity="0.3" d="M100 265.5C95 255.333 73.2 214.7 62 205.5" stroke="white"/>
<path opacity="0.3" d="M95.5 257.5C90 253.5 72.5 242 50 242" stroke="white"/>
<path opacity="0.3" d="M90.9999 247.5C88 235 91.3999 220.7 98.9999 215.5" stroke="white"/>
<path opacity="0.3" d="M80.5002 230.5C78.0001 219 77.9001 207.1 83.5001 203.5" stroke="white"/>
</svg>
