<svg width="375" height="485" viewBox="0 0 375 485" fill="none" xmlns="http://www.w3.org/2000/svg">
<path d="M448 185.5C448 335.445 328.236 457 180.5 457C32.7638 457 -87 335.445 -87 185.5C-87 35.5547 43.2638 -237 191 -237C338.736 -237 448 35.5547 448 185.5Z" fill="#FFEFED"/>
<path d="M64.8935 220.318C61.0818 223.417 58.2679 230.932 57.5203 234.932C57.0671 230.674 58.3596 221.162 61.3849 217.16C64.4102 213.158 69.6582 216.444 64.8935 220.318Z" fill="#04994C"/>
<path d="M54.3676 230.636C52.5406 227.808 45.316 220.269 43.8416 223.125C42.3672 225.981 50.4279 225.702 54.3676 230.636Z" fill="#04994C"/>
<path d="M57.8761 240.385C54.5553 236.296 40.9755 225.685 37.6635 230.223C34.3514 234.76 50.572 233.344 57.8761 240.385Z" fill="#04994C"/>
<path d="M61.4689 247.364C55.1572 242.754 31.6581 232.665 28.6222 240.429C25.5863 248.193 48.325 240.024 61.4689 247.364Z" fill="#04994C"/>
<path d="M62.1606 244.887C60.6688 231.642 72.0861 216.113 76.2602 220.052C80.4343 223.99 65.2064 229.436 62.1606 244.887Z" fill="#04994C"/>
<path d="M65.4811 251.152C66.5865 235.797 83.9022 220.22 88.1123 225.474C92.3224 230.728 72.594 234.121 65.4811 251.152Z" fill="#04994C"/>
<path d="M71.7965 259.572C72.902 244.218 90.2177 228.641 94.4277 233.895C98.6378 239.149 78.9094 242.542 71.7965 259.572Z" fill="#04994C"/>
<path d="M77.4103 267.291C78.5157 251.937 95.8314 236.36 100.042 241.614C104.252 246.868 84.5232 250.261 77.4103 267.291Z" fill="#04994C"/>
<path d="M67.9606 256.509C60.2137 252.272 31.7827 244.511 28.6375 253.778C25.4922 263.044 51.9595 250.247 67.9606 256.509Z" fill="#04994C"/>
<path d="M76.8229 268.258C68.6851 264.028 38.6285 256.631 35.0547 266.374C31.4809 276.118 59.9534 262.118 76.8229 268.258Z" fill="#04994C"/>
<path d="M56.4554 218.609C50.846 236.92 76.5596 267.912 89.3168 280.903C57.5253 252.247 51.2087 223.54 51.2087 215.406C51.2087 204.88 61.7357 201.371 56.4554 218.609Z" fill="#04994C"/>
<path d="M-44.1282 248.323C-33.0848 222.13 9.56018 172.167 91.7929 181.86C194.584 193.975 366.438 192.824 375 44.9995" stroke="#FFD5CF"/>
<mask id="mask0_801_351" style="mask-type:alpha" maskUnits="userSpaceOnUse" x="-1" y="164" width="376" height="293">
<path d="M-0.5 355C10.8444 442.124 63.6997 457 180.501 457C262.5 449.5 327.243 429.159 375 371V292V164H-0.5V355Z" fill="#D9D9D9"/>
</mask>
<g mask="url(#mask0_801_351)">
<path fill-rule="evenodd" clip-rule="evenodd" d="M-192 349.765C-148.977 333.849 -63.3265 316.734 49.5635 313.149C247.261 306.871 407.241 324.052 558 421.646V494.217H374.842C351.808 472.292 330.296 455.702 319.018 448.578C111.572 317.532 -101.419 353.805 -192 374.596V349.765Z" fill="#FFD5D0"/>
</g>
<path fill-rule="evenodd" clip-rule="evenodd" d="M244.037 234.957C243.753 235.55 243.509 236.168 243.304 236.806C241.731 241.677 242.445 247.591 244.852 252.936C247.262 258.29 251.368 263.064 256.572 265.644C257.379 266.044 258.217 266.392 259.083 266.683C262.793 267.928 266.757 267.248 270.167 265.458C273.941 263.476 277.028 260.143 278.345 256.551C279.333 253.857 279.41 251.165 278.779 248.797C278.225 246.721 277.128 244.896 275.626 243.54C274.126 242.186 272.219 241.298 270.043 241.093C267.703 240.871 265.048 241.437 262.244 243.059L261.843 242.341C264.801 240.63 267.62 240.034 270.116 240.27C272.472 240.492 274.537 241.455 276.162 242.922C277.785 244.387 278.969 246.351 279.563 248.58C280.236 251.105 280.155 253.972 279.104 256.839C277.718 260.621 274.484 264.121 270.538 266.193C266.948 268.078 262.762 268.789 258.828 267.469C257.936 267.169 257.065 266.806 256.219 266.388C250.839 263.72 246.6 258.796 244.115 253.279C241.627 247.752 240.894 241.619 242.532 236.547C242.746 235.881 243.005 235.229 243.306 234.598L244.037 234.957Z" fill="#F5ECDC"/>
<path fill-rule="evenodd" clip-rule="evenodd" d="M281.686 220.407C280.862 220.445 280.111 219.822 280.008 219.017C279.904 218.213 280.489 217.529 281.313 217.492L282.058 217.452C285.12 217.282 289.943 217.015 292.922 219.327C293.852 220.049 294.504 220.969 295.033 222.352C295.488 223.537 295.854 225.086 296.265 227.233C296.416 228.034 295.877 228.753 295.06 228.839C294.244 228.924 293.458 228.343 293.308 227.542C292.929 225.564 292.603 224.167 292.223 223.175C291.919 222.381 291.592 221.89 291.163 221.557C289.151 219.996 285.055 220.222 282.455 220.366C282.227 220.379 282.006 220.391 281.686 220.407Z" fill="#FEB63B"/>
<path fill-rule="evenodd" clip-rule="evenodd" d="M265.336 310.51C270.248 316.635 273.356 338.439 259.072 338.112C248.17 337.864 247.714 325.247 248.725 317.343C249.564 310.149 257.807 301.124 265.336 310.51Z" fill="#0E0F13"/>
<path fill-rule="evenodd" clip-rule="evenodd" d="M90.1928 323.948C121.19 326.113 152.188 328.318 183.187 330.448L181.84 296.9L85.7192 301.883C83.4488 306.106 82.4524 316.503 85.0244 321.218C85.8949 322.813 87.8708 323.334 90.1928 323.948Z" fill="#273648"/>
<path fill-rule="evenodd" clip-rule="evenodd" d="M107.622 308.581C112.073 314.259 113.109 331.913 107.194 335.416C105.347 336.51 98.2147 336.468 96.264 335.224C90.0923 331.29 89.2845 309.811 95.1855 306.99C97.142 306.055 105.856 306.329 107.622 308.581Z" fill="#273648"/>
<path fill-rule="evenodd" clip-rule="evenodd" d="M96.2812 306.487C99.4371 306.59 102.282 313.111 102.636 321.05C102.989 328.99 100.717 335.343 97.5608 335.239C94.4042 335.136 91.5597 328.615 91.2062 320.676C90.8527 312.735 93.1246 306.383 96.2812 306.487Z" fill="#0E0F13"/>
<path fill-rule="evenodd" clip-rule="evenodd" d="M172.254 299.371C178.056 301.041 183.07 309.702 183.185 321.1C183.257 328.316 181.383 334.135 178.504 337.494C175.055 341.519 168.513 341.409 163.448 340.405C157.565 339.239 152.632 330.074 152.517 318.676C152.402 307.278 157.165 299.508 163.03 299.128C167.789 298.82 169.324 298.528 172.254 299.371Z" fill="#273648"/>
<path fill-rule="evenodd" clip-rule="evenodd" d="M162.853 299.805C168.674 300.391 173.486 309.866 173.6 320.967C173.713 332.068 169.085 340.592 163.264 340.005C157.441 339.419 152.63 329.944 152.517 318.844C152.404 307.742 157.031 299.218 162.853 299.805Z" fill="#0E0F13"/>
<path fill-rule="evenodd" clip-rule="evenodd" d="M199.444 331.771C204.535 332.126 209.121 332.391 214.196 332.363C240.697 332.216 266.719 331.529 290.889 328.769C301.891 327.512 302.25 325.897 301.992 311.69C301.807 301.433 300.894 289.729 299.085 276.992C297 266.339 294.267 255.384 291 244.183L187.979 248.995L199.444 331.771Z" fill="#FEB63B"/>
<path fill-rule="evenodd" clip-rule="evenodd" d="M302.042 308.535C301.925 304.658 301.708 300.591 301.381 296.354C301.159 296.23 300.921 296.13 300.67 296.058C300.321 295.958 299.965 295.924 299.614 295.952C297.63 296.11 295.69 296.342 293.73 296.622C291.85 296.891 289.988 297.144 288.09 297.329C285.993 297.533 285.041 299.163 284.148 300.817C283.218 302.541 282.553 304.419 282.036 306.33C281.811 307.163 281.872 308.06 282.406 308.831C283.319 310.149 285.066 310.396 286.474 310.302C288.882 310.143 291.284 309.957 293.674 309.69C296.378 309.388 299.065 308.991 301.747 308.594C301.847 308.579 301.945 308.56 302.042 308.535Z" fill="#0E0F13"/>
<path fill-rule="evenodd" clip-rule="evenodd" d="M301.083 291.162C300.637 286.55 300.065 281.756 299.355 276.806C295.481 257.182 289.383 236.535 281.782 215.197C279.792 209.613 275.791 208.033 268.623 206.609C246.861 202.284 201.84 201.251 189.495 202.503C187.546 202.701 184.738 203.375 181.27 204.425L192.85 287.309C197.336 289.649 201.94 291.68 206.537 293.356C239.775 296.408 279.454 294.876 301.083 291.162Z" fill="#0E0F13"/>
<path fill-rule="evenodd" clip-rule="evenodd" d="M281.249 214.643C255.722 210.21 229.684 207.936 204.192 208.961C195.512 209.311 195.983 209.612 197.422 214.568C203.287 233.713 206.497 257.942 208.674 277.635C209.604 286.044 294.141 281.679 299.166 278.701C298.088 259.621 290.431 232.384 281.249 214.643Z" fill="#0E0F13"/>
<path fill-rule="evenodd" clip-rule="evenodd" d="M281.339 215.167C279.957 214.928 278.575 214.696 277.19 214.469C285.72 241.905 287.74 267.97 227.679 268.712C220.504 268.801 214.001 268.847 208.108 268.857C208.473 271.871 208.811 274.82 209.128 277.673C210.052 286.016 294.166 281.685 299.166 278.73C298.094 259.798 290.475 232.771 281.339 215.167Z" fill="#35373F"/>
<path fill-rule="evenodd" clip-rule="evenodd" d="M217.851 208.72C213.326 208.703 208.812 208.781 204.315 208.962L204.274 208.963L279.828 281.564C284.752 281.215 289.086 280.818 292.456 280.409L217.851 208.72Z" fill="#35373F"/>
<path fill-rule="evenodd" clip-rule="evenodd" d="M229.612 208.932C227.235 208.836 224.859 208.764 222.485 208.718L296.271 279.647C297.734 279.384 298.741 279.121 299.166 278.869C299.104 277.791 299.021 276.683 298.92 275.556L229.612 208.932Z" fill="#35373F"/>
<path fill-rule="evenodd" clip-rule="evenodd" d="M73.9812 316.094C74.5703 321.665 84.4599 322.843 90.1548 323.274C90.0317 318.331 89.2417 304.787 95.1186 304.534C100.873 304.287 102.332 318.588 102.47 324.127L151.181 327.525C150.961 318.684 149.029 298.409 159.572 298.124C169.056 297.868 171.278 319.561 172.074 328.971L199.07 330.813C208.363 331.301 207.88 331.296 207.982 324.84C208.498 292.099 197.982 199.986 185.49 203.076C162.711 208.708 92.4089 241.11 76.1935 249.576C73.2102 251.134 72.898 252.106 72.7593 254.051C71.4719 272.104 71.7847 295.341 73.9812 316.094Z" fill="#FEB63B"/>
<path fill-rule="evenodd" clip-rule="evenodd" d="M207.191 293.066C203.945 253.206 195.635 200.694 186.191 203.043C163.473 208.692 92.3551 241.194 76.1817 249.687C73.2069 251.249 72.8955 252.225 72.7572 254.175C72.0992 263.462 71.8602 274.116 72.0789 285.1C93.1136 282.514 138.745 276.288 171.439 270.092C181.559 279.258 194.505 288.41 207.191 293.066Z" fill="#0E0F13"/>
<path fill-rule="evenodd" clip-rule="evenodd" d="M72.4583 297.855C72.2357 297.883 72.0313 297.731 72.0032 297.519C71.9752 297.306 72.1332 297.111 72.3565 297.084C86.8983 295.329 111.464 293.323 135.409 291.369C148.493 290.301 161.391 289.247 172.197 288.275C172.421 288.255 172.62 288.412 172.641 288.626C172.663 288.839 172.498 289.029 172.274 289.049C161.207 290.045 148.433 291.088 135.476 292.146C111.508 294.103 86.9179 296.11 72.4583 297.855Z" fill="#FFDFA2"/>
<path fill-rule="evenodd" clip-rule="evenodd" d="M201.375 283.303C201.36 283.076 201.53 282.88 201.754 282.866C201.977 282.852 202.17 283.024 202.184 283.251C202.462 287.696 202.756 291.981 203.031 296.007C203.97 309.694 204.701 320.367 203.987 325.168C203.799 326.429 203.5 327.219 202.914 327.731C202.332 328.238 201.52 328.422 200.299 328.477C197.79 328.589 194.007 328.517 190.119 328.359C185.245 328.161 180.203 327.826 177.305 327.542C177.111 327.524 176.962 327.369 176.941 327.179L168.812 256.144C168.786 255.918 168.946 255.714 169.169 255.687C169.392 255.662 169.593 255.824 169.619 256.05L177.709 326.754C180.636 327.03 185.469 327.347 190.151 327.537C194.018 327.694 197.779 327.765 200.264 327.654C201.299 327.608 201.967 327.471 202.386 327.106C202.802 326.743 203.025 326.104 203.184 325.045C203.885 320.328 203.156 309.697 202.222 296.061C201.947 292.053 201.655 287.785 201.375 283.303Z" fill="#FFDFA2"/>
<path fill-rule="evenodd" clip-rule="evenodd" d="M87.0382 249.182C83.8739 250.759 80.7516 252.347 77.6816 253.943C75.7836 254.93 75.6872 255.326 75.5155 257.959C75.1334 263.788 74.9289 269.679 74.8758 275.586C74.8575 277.565 75.5371 278.132 79.0482 277.462L85.0176 276.322C88.8943 275.58 89.2823 275.748 89.2515 272.493L89.1132 252.729C89.0824 249.482 88.4191 248.495 87.0382 249.182Z" fill="#35373F"/>
<path fill-rule="evenodd" clip-rule="evenodd" d="M105.65 239.843C101.553 241.8 98.349 243.343 94.3422 245.347C92.1874 246.425 91.138 247.45 91.1707 251.014L91.3309 272.019C91.3553 274.664 91.7739 275.124 93.7575 274.732L107.952 271.93C109.995 271.357 110.41 270.625 110.331 268.048L109.596 243.08C109.483 239.362 107.779 238.826 105.65 239.843Z" fill="#35373F"/>
<path fill-rule="evenodd" clip-rule="evenodd" d="M202.357 283.481C200.291 262.022 196.206 232.154 189.747 213.569C187.584 208.414 186.733 208.181 183.278 209.197C178.122 210.715 172.95 212.699 168.033 214.599C166.256 215.287 165.744 216.166 165.993 220.228C166.608 230.281 167.44 243.904 169.144 257.71C170.1 265.459 195.118 281.121 202.357 283.481Z" fill="#35373F"/>
<path fill-rule="evenodd" clip-rule="evenodd" d="M127.753 229.73C124.211 231.256 120.669 232.806 117.141 234.374C113.821 235.851 112.112 237.182 112.267 242.062L113.051 266.741C113.139 269.544 114.655 270.585 118.673 269.818L130.041 267.651C133.378 266.747 134.452 266.562 134.287 262.949L133.026 235.518C132.704 228.534 132.035 227.885 127.753 229.73Z" fill="#35373F"/>
<path fill-rule="evenodd" clip-rule="evenodd" d="M154.433 218.971C149.816 220.829 145.151 222.738 140.464 224.695C136.748 226.246 136.018 227.762 136.262 233.109L137.497 260.092C137.726 265.077 138.911 265.743 142.623 265.031L156.673 262.34C163.258 261.078 164.359 260.293 163.937 253.196C163.406 244.276 162.686 232.531 162.449 223.049C162.286 216.468 161.119 216.283 154.433 218.971Z" fill="#35373F"/>
<path fill-rule="evenodd" clip-rule="evenodd" d="M96.4236 311.279C92.6538 311.169 93.651 330.338 97.4201 330.448C101.188 330.558 100.192 311.388 96.4236 311.279Z" fill="#FFEFED"/>
<path fill-rule="evenodd" clip-rule="evenodd" d="M95.3974 321.821C94.9576 320.715 94.9142 317.828 95.1304 315.791C95.3831 313.403 96.1637 313.977 95.9136 315.297C95.5394 317.276 95.45 319.984 95.3974 321.821Z" fill="white"/>
<path fill-rule="evenodd" clip-rule="evenodd" d="M162.748 306.487C156.298 306.217 157.077 333.059 163.369 333.322C169.819 333.591 169.039 306.751 162.748 306.487Z" fill="#FFEFED"/>
<path fill-rule="evenodd" clip-rule="evenodd" d="M159.868 321.822C158.897 319.939 159.121 315.222 159.898 311.935C160.809 308.082 162.693 309.155 161.916 311.265C160.75 314.43 160.212 318.832 159.868 321.822Z" fill="white"/>
<path fill-rule="evenodd" clip-rule="evenodd" d="M215.593 299.842C220.949 299.685 226.331 299.823 231.715 300.105C233.859 300.217 235.22 301.661 236.557 303.218C237.995 304.893 239.196 306.757 240.251 308.667C240.677 309.44 240.854 310.298 240.53 311.086C239.97 312.453 238.257 312.852 236.857 312.93C230.063 313.306 223.244 313.337 216.384 312.664C214.33 312.463 212.779 310.942 212.381 308.978C212.003 307.113 211.83 305.256 212.019 303.401C212.215 301.468 213.517 299.903 215.593 299.842Z" fill="#0E0F13"/>
<path fill-rule="evenodd" clip-rule="evenodd" d="M216.384 300.802C221.613 300.64 226.867 300.783 232.131 301.074C233.577 301.155 234.545 302.07 235.974 303.832C237.284 305.449 238.42 307.294 239.452 309.275C240.344 310.986 239.051 311.84 236.998 311.96C230.463 312.343 223.85 312.393 217.06 311.688C215.615 311.537 214.552 310.416 214.267 308.93C213.929 307.163 213.751 305.347 213.93 303.488C214.072 302.014 214.946 300.847 216.384 300.802Z" fill="#EF1C26"/>
<path fill-rule="evenodd" clip-rule="evenodd" d="M299.593 297.864C294.576 298.256 292.939 298.747 287.981 299.216C286.611 299.347 285.921 300.327 284.978 302.027C284.113 303.587 283.467 305.332 282.953 307.189C282.508 308.793 283.944 309.474 285.919 309.346C292.116 308.946 294.755 308.611 301.231 307.677C304.453 307.213 302.895 297.607 299.593 297.864Z" fill="#EF1C26"/>
<path fill-rule="evenodd" clip-rule="evenodd" d="M246.709 301.471L274.939 300.736C280.193 300.599 277.5 310.816 276.457 313.987C275.769 316.084 269.357 316.407 262.877 316.767C255.622 317.171 248.206 317.378 247.14 315.291C245.372 311.822 240.327 301.638 246.709 301.471Z" fill="#7B1618"/>
<path fill-rule="evenodd" clip-rule="evenodd" d="M121.843 292.557C121.827 292.327 121.991 292.125 122.21 292.109C122.429 292.092 122.62 292.264 122.635 292.495C122.8 294.759 122.966 297.655 123.15 300.847C123.539 307.606 124.005 315.709 124.715 322.315C124.739 322.545 124.582 322.752 124.364 322.777C124.146 322.802 123.95 322.637 123.926 322.407C123.214 315.789 122.747 307.669 122.357 300.896C122.176 297.737 122.012 294.872 121.843 292.557Z" fill="#FFDFA2"/>
<path fill-rule="evenodd" clip-rule="evenodd" d="M206.097 222.157L211.45 222.137C213.23 222.13 214.871 223.328 215.13 225.036L217.659 241.749C217.917 243.456 216.689 245.035 214.911 245.061L209.563 245.14C207.785 245.167 206.141 243.949 205.884 242.242L203.35 225.469C203.092 223.762 204.318 222.164 206.097 222.157Z" fill="#FEB63B"/>
<path fill-rule="evenodd" clip-rule="evenodd" d="M192.553 214.054C191.725 214.028 190.893 212.611 190.855 211.782C190.816 210.952 194.653 210.61 195.481 210.636C195.755 210.645 195.987 210.651 196.231 210.656C199.318 210.734 204.179 210.854 206.97 213.454C207.912 214.332 208.608 215.331 209.244 217.104C209.803 218.663 210.319 220.873 210.958 224.307C211.109 225.133 210.571 225.874 209.755 225.962C208.938 226.05 208.154 225.452 208.004 224.625C207.398 221.371 206.92 219.31 206.421 217.917C205.998 216.74 205.571 216.109 205.011 215.587C203.124 213.828 199.007 213.726 196.393 213.661C196.098 213.655 192.754 214.06 192.553 214.054Z" fill="#FEB63B"/>
<path fill-rule="evenodd" clip-rule="evenodd" d="M293.105 225.029L296.252 225.013C297.299 225.008 298.276 225.906 298.445 227.188L300.099 239.722C300.269 241.003 299.563 242.186 298.517 242.205L295.374 242.265C294.329 242.286 293.35 241.373 293.181 240.092L291.523 227.512C291.354 226.231 292.058 225.034 293.105 225.029Z" fill="#FEB63B"/>
<path fill-rule="evenodd" clip-rule="evenodd" d="M218.418 320.903C221.905 320.808 225.407 320.892 228.916 321.062C229.879 321.108 230.525 321.642 231.477 322.67C232.35 323.614 233.108 324.69 233.797 325.845C234.391 326.844 233.529 327.341 232.16 327.412C227.805 327.635 223.395 327.665 218.868 327.253C217.905 327.165 217.197 326.511 217.007 325.644C216.781 324.613 216.662 323.554 216.781 322.469C216.876 321.609 217.459 320.928 218.418 320.903Z" fill="#D7CFD5"/>
<path fill-rule="evenodd" clip-rule="evenodd" d="M221.155 321.83C220.117 321.933 219.442 322.871 219.646 323.925C219.852 324.978 220.86 325.749 221.898 325.646C222.937 325.543 223.612 324.606 223.407 323.552C223.202 322.498 222.194 321.728 221.155 321.83Z" fill="white"/>
<path fill-rule="evenodd" clip-rule="evenodd" d="M297.217 316.075C293.676 316.323 290.134 316.77 286.592 317.314C285.62 317.464 285.012 318.121 284.136 319.359C283.331 320.494 282.656 321.765 282.059 323.117C281.543 324.286 282.459 324.751 283.852 324.692C288.286 324.498 292.756 324.085 297.307 323.17C298.276 322.974 298.938 322.177 299.056 321.195C299.196 320.028 299.225 318.839 299.011 317.648C298.841 316.703 298.191 316.006 297.217 316.075Z" fill="#D7CFD5"/>
<path fill-rule="evenodd" clip-rule="evenodd" d="M226.133 323.743C225.614 323.795 225.276 324.263 225.379 324.79C225.482 325.317 225.986 325.702 226.505 325.651C227.024 325.599 227.362 325.13 227.26 324.604C227.156 324.077 226.652 323.691 226.133 323.743Z" fill="white"/>
<path fill-rule="evenodd" clip-rule="evenodd" d="M294.59 318.956C295.642 319.059 296.398 319.996 296.278 321.05C296.159 322.104 295.21 322.874 294.158 322.771C293.106 322.668 292.35 321.731 292.469 320.677C292.588 319.623 293.538 318.852 294.59 318.956Z" fill="white"/>
<path fill-rule="evenodd" clip-rule="evenodd" d="M289.689 319.911C290.215 319.988 290.592 320.691 290.534 321.482C290.474 322.271 289.999 322.851 289.473 322.773C288.947 322.695 288.569 321.993 288.629 321.202C288.688 320.411 289.163 319.834 289.689 319.911Z" fill="white"/>
<path fill-rule="evenodd" clip-rule="evenodd" d="M235.176 322.681C237.35 326.745 237.706 328.531 243.836 328.531C250.925 328.531 277.899 327.336 279.083 326.034C280.269 324.731 283.359 319.304 282.805 318.218C282.367 317.358 265.816 319.159 236.811 319.409C232.753 319.444 233.896 320.289 235.176 322.681Z" fill="#FFDFA2"/>
<path fill-rule="evenodd" clip-rule="evenodd" d="M217.693 300.752C220.81 303.818 222.278 308.073 220.974 311.982C220.963 312.013 220.953 312.045 220.942 312.077C222.422 312.156 223.895 312.208 225.361 312.236C223.665 309.794 222.369 306.362 224.337 302.672C224.707 301.979 225.046 301.358 225.356 300.802C222.798 300.737 220.243 300.715 217.693 300.752Z" fill="#D7CFD5"/>
<path d="M-0.5 74.4999C11.6667 91.8332 47.1999 121.3 88 84.5001C131.5 45.2652 99 -4.00013 67.5 -3.50013" stroke="#FFD5CF"/>
<path d="M-11 61.5C-5.83333 86.1667 35 138.5 99 114C188 79.9297 142.5 -12.5 125 -29.5" stroke="#FFD5CF"/>
<path d="M0 116C57.6667 157 190.4 191.8 260 3" stroke="#FFD5CF"/>
<path d="M69 431.468C86.2033 416.762 139 400 157 454.5" stroke="#FFD5CF"/>
<path d="M63 429.5C72 416.333 101.3 391.4 146.5 397C191.7 402.6 206.333 438.333 208 455.5" stroke="#FFD5CF"/>
<path d="M56 425C65.1667 404.666 98.6 366.1 159 374.5C219.4 382.9 241.167 427.333 244.5 448.5" stroke="#FFD5CF"/>
</svg>
