<svg fill="none" height="99" viewBox="0 0 96 99" width="96" xmlns="http://www.w3.org/2000/svg"><ellipse cx="57" cy="93" fill="#f7f7f7" rx="39" ry="6"/><path d="m60.3779 19.8138v7.3161h3.7676v-6.3016c0-1.1563.5964-2.231 1.5777-2.8427l10.8874-6.7875c.9326-.5814 1.1813-1.82919.5428-2.72372-.5896-.82604-1.7232-1.04493-2.578-.49777l-11.8824 7.60639c-1.4424.9234-2.3151 2.5181-2.3151 4.2308z" fill="#7b1618"/><path d="m37.3752 27.13-2.0227 4.8965h38.0837l-2.4132-4.8965z" fill="#ff535b" stroke="#ff535b"/><path d="m67.9963 94.5925v-3.2643h-23.3942v3.2643z" fill="#ffdfa2"/><path d="m69.1294 91.8722 5.3949-51.1409h-39.1718l7.506 51.1409z" fill="#feb63b"/><path d="m33.3049 32.0267-2.3049 8.7048h46.7885l-2.5353-8.7048z" fill="#ffdfa2"/><circle cx="54.9387" cy="61.4054" fill="#ffdfa2" r="10.8811"/><circle cx="25" cy="25" fill="#f4f4f4" r="25"/><g stroke="#f42f1a" stroke-linecap="round" stroke-linejoin="round" stroke-width="3"><path d="m32 18.0001-14 14"/><path d="m18 18.0001 14 14"/></g></svg>