<svg width="96" height="99" viewBox="0 0 96 99" fill="none" xmlns="http://www.w3.org/2000/svg">
<ellipse cx="57" cy="93" rx="39" ry="6" fill="#F7F7F7"/>
<path d="M60.3779 19.8138V27.1299H64.1455V20.8283C64.1455 19.672 64.7419 18.5973 65.7232 17.9856L76.6106 11.1981C77.5432 10.6167 77.7919 9.36891 77.1534 8.47438C76.5638 7.64834 75.4302 7.42945 74.5754 7.97661L62.693 15.583C61.2506 16.5064 60.3779 18.1011 60.3779 19.8138Z" fill="#7B1618"/>
<path d="M37.3752 27.1299L35.3525 32.0264H73.4362L71.023 27.1299H37.3752Z" fill="#FF535B" stroke="#FF535B"/>
<path d="M67.9958 94.5924V91.3281H44.6016V94.5924H67.9958Z" fill="#FFDFA2"/>
<path d="M69.1294 91.8724L74.5243 40.7314H35.3525L42.8585 91.8724H69.1294Z" fill="#FEB63B"/>
<path d="M33.3049 32.0264L31 40.7312H77.7885L75.2532 32.0264H33.3049Z" fill="#FFDFA2"/>
<circle cx="54.9387" cy="61.4055" r="10.8811" fill="#FFDFA2"/>
<circle cx="25" cy="25" r="25" fill="#F4F4F4"/>
<path d="M32 18L18 32" stroke="#F42F1A" stroke-width="3" stroke-linecap="round" stroke-linejoin="round"/>
<path d="M18 18L32 32" stroke="#F42F1A" stroke-width="3" stroke-linecap="round" stroke-linejoin="round"/>
</svg>
