<svg width="115" height="40" viewBox="0 0 115 40" fill="none" xmlns="http://www.w3.org/2000/svg">
<path d="M58.6822 11.7914L51.1253 28.7844C50.4618 30.2765 48.9808 31.2381 47.3464 31.2381Lnan nanL47.3464 31.2381C45.1729 31.2381 43.3705 29.5573 43.2211 27.3913L42.6419 18.9911L38.834 28.4934C38.1696 30.1512 36.5621 31.2381 34.7745 31.2381Lnan nanL34.7745 31.2381C32.5224 31.2381 30.6387 29.5295 30.4221 27.2902L28.9227 11.7914H31.2851C33.069 11.7914 34.5613 13.1446 34.7334 14.9183L35.541 23.6582L39.526 13.896C40.0702 12.6198 41.3247 11.7914 42.7134 11.7914H47.111L47.9771 23.6582L52.1876 13.8391C52.7454 12.5934 53.9839 11.7914 55.35 11.7914H58.6822Z" fill="black" fill-opacity="0.7"/>
<path d="M56.4042 21.4124C56.7507 19.4282 57.432 17.6863 58.4482 16.1866C59.4645 14.687 60.6886 13.5334 62.1205 12.7259C63.5525 11.9183 65.0653 11.5146 66.6589 11.5146C68.0216 11.5146 69.1649 11.7914 70.0887 12.3452C71.0126 12.8989 71.6824 13.6257 72.0981 14.5255C72.3782 12.8722 73.8116 11.6622 75.4901 11.6622H78.5953L76.0936 26.3959L75.8851 27.9061C75.7879 29.3411 75.743 30.0494 76.5105 31.1025H72.2467C70.8117 31.1025 69.7544 29.7622 70.09 28.3685C69.3509 29.2683 67.9985 29.9951 66.8668 30.5488C65.7351 31.1025 64.4879 31.3794 63.1252 31.3794C61.7625 31.3794 60.55 31.0679 59.4876 30.445C58.4482 29.822 57.6399 28.9453 57.0625 27.8148C56.4851 26.6612 56.1964 25.3115 56.1964 23.7657C56.1964 23.0274 56.2656 22.243 56.4042 21.4124ZM70.8856 21.447C70.9548 21.0317 70.9895 20.651 70.9895 20.3049C70.9895 19.1744 70.6546 18.2861 69.9848 17.6401C69.3381 16.9941 68.5066 16.6711 67.4904 16.6711C66.3125 16.6711 65.2385 17.098 64.2685 17.9516C63.2984 18.7822 62.6864 19.9358 62.4323 21.4124C62.363 21.8277 62.3284 22.2083 62.3284 22.5544C62.3284 23.6849 62.6517 24.5847 63.2984 25.2538C63.9682 25.8998 64.7997 26.2228 65.7928 26.2228C66.9707 26.2228 68.0447 25.796 69.0148 24.9424C69.9848 24.0887 70.6084 22.9236 70.8856 21.447Z" fill="black" fill-opacity="0.7"/>
<path d="M103.505 26.2228H107.762C109.927 26.2228 111.561 28.1843 111.169 30.3112L111.023 31.1025H96.0217L96.4978 28.5151C96.7517 27.135 97.4197 25.8645 98.413 24.8722L106.623 16.6711H102.769C100.62 16.6711 98.9891 14.7368 99.3549 12.6213L99.5208 11.6622H114.245L113.791 14.2975C113.545 15.7282 112.855 17.0455 111.819 18.063L103.505 26.2228Z" fill="black" fill-opacity="0.7"/>
<path d="M80.68 11.6533L78.4883 24.5449L78.4804 24.717C78.4327 25.7556 78.6071 27.0277 79.2787 28.2024C79.9939 29.4533 81.1966 30.4443 82.8526 30.8469C84.4182 31.2275 86.1796 31.0352 88.0736 30.4201C88.4737 30.2902 88.3096 30.342 88.7381 30.1684L88.7474 30.3451C88.1944 32.1261 87.3688 33.5418 85.9721 34.1251C84.7969 34.616 82.4589 34.8258 78.1282 32.8366C76.3898 32.0381 74.2793 32.574 73.3206 34.2282L72.2791 36.0252C79.0986 39.9691 84.2416 40.8497 88.1104 39.2338C91.9731 37.6204 93.4479 33.9728 94.1015 31.7893L94.146 31.6406L97.757 11.6533H94.7967C93.1368 11.6533 91.7102 12.8294 91.3952 14.4574L90.0097 21.619C89.8226 22.5859 89.2258 23.4196 88.4117 23.9751C87.589 24.5364 87.1002 24.9138 86.36 25.1542C85.0417 25.5823 84.3861 25.5209 84.1634 25.4667C84.1262 25.4577 84.1009 25.449 84.085 25.4425C84.0619 25.3938 84.024 25.2775 84.0171 25.1L85.6536 15.7075C86.0224 13.5907 84.3913 11.6533 82.2405 11.6533H80.68Z" fill="black" fill-opacity="0.7"/>
<path d="M30.6459 3.95683H28.7516C28.7537 3.99288 28.7557 4.03079 28.7576 4.07051C28.7723 4.38486 28.7779 4.81541 28.7488 5.33638C28.6907 6.37441 28.4931 7.79763 27.9356 9.38539C26.7971 12.6282 24.2029 16.4035 18.6832 18.9295C9.89803 22.9498 6.21552 25.2834 4.44321 26.9274C3.48277 27.8101 1.3551 29.8247 0.527984 30.8216C-1.07062 26.1699 1.33934 22.6535 2.74415 21.4768C3.92182 20.3844 5.03876 19.567 6.81417 18.5853L9.50292 3.74858H11.2758C13.4374 3.74858 15.0711 5.70414 14.6844 7.82852L13.3036 15.4135C14.1977 15.0005 15.1783 14.5508 16.2578 14.0568C20.2674 12.2219 21.8965 9.66348 22.5989 7.66282C22.9619 6.62885 23.0892 5.7029 23.1258 5.04719C23.1441 4.72129 23.1396 4.46882 23.1322 4.31188C23.1303 4.27051 23.1282 4.11981 23.1263 3.98311L23.1263 3.98265L23.1259 3.95683H20.8476L25.851 0L30.6459 3.95683Z" fill="black" fill-opacity="0.7"/>
<path d="M5.20755 27.4508L4.54574 31.1027H7.57744C9.25226 31.1027 10.6873 29.9058 10.9862 28.2597L11.8903 23.2814L11.8943 23.2593C8.4219 25.0789 6.42901 26.4024 5.20755 27.4508Z" fill="black" fill-opacity="0.7"/>
<path d="M19.896 21.0318L20.2197 19.2127C23.844 17.3054 26.052 14.8339 27.3662 12.4316L24.0533 31.1026H22.2535C20.101 31.1026 18.4695 29.1624 18.8411 27.0444L19.896 21.0318Z" fill="black" fill-opacity="0.7"/>
</svg>
