<svg width="20" height="20" viewBox="0 0 20 20" fill="none" xmlns="http://www.w3.org/2000/svg">
<path d="M10.8965 10.8333H8.33333C7.41286 10.8333 6.66667 11.5795 6.66667 12.5C6.66667 13.4205 7.41286 14.1666 8.33333 14.1666H15.8333C16.7538 14.1666 17.5 14.9128 17.5 15.8333C17.5 16.7538 16.7538 17.5 15.8333 17.5H2.5" stroke="#939497" stroke-width="1.2" stroke-linecap="round"/>
<path d="M14.3892 5.28467C14.3892 5.89069 13.898 6.38197 13.2919 6.38197C12.6859 6.38197 12.1946 5.89069 12.1946 5.28467C12.1946 4.67864 12.6859 4.18736 13.2919 4.18736C13.898 4.18736 14.3892 4.67864 14.3892 5.28467Z" stroke="#939497" stroke-width="1.2"/>
<path d="M16.5838 5.28466C16.5838 7.10274 14.3892 9.67389 13.2919 9.67389C12.1946 9.67389 10 7.10274 10 5.28466C10 3.46658 11.4738 1.99274 13.2919 1.99274C15.11 1.99274 16.5838 3.46658 16.5838 5.28466Z" stroke="#939497" stroke-width="1.2"/>
</svg>
