<svg width="20" height="20" viewBox="0 0 20 20" fill="none" xmlns="http://www.w3.org/2000/svg">
<path d="M10 20C15.5228 20 20 15.5228 20 10C20 4.47715 15.5228 0 10 0C4.47715 0 0 4.47715 0 10C0 15.5228 4.47715 20 10 20Z" fill="#FFCC4D"/>
<path d="M9.99978 11.6667C7.98701 11.6667 6.65145 11.4323 4.99978 11.1111C4.62256 11.0384 3.88867 11.1111 3.88867 12.2223C3.88867 14.4445 6.44145 17.2222 9.99978 17.2222C13.5576 17.2222 16.1109 14.4445 16.1109 12.2223C16.1109 11.1111 15.377 11.0378 14.9998 11.1111C13.3481 11.4323 12.0126 11.6667 9.99978 11.6667Z" fill="#664500"/>
<path d="M5 12.2227C5 12.2227 6.66667 12.7782 10 12.7782C13.3333 12.7782 15 12.2227 15 12.2227C15 12.2227 13.8889 14.4449 10 14.4449C6.11111 14.4449 5 12.2227 5 12.2227Z" fill="white"/>
<path d="M6.66672 9.44455C7.43378 9.44455 8.05561 8.574 8.05561 7.50011C8.05561 6.42622 7.43378 5.55566 6.66672 5.55566C5.89966 5.55566 5.27783 6.42622 5.27783 7.50011C5.27783 8.574 5.89966 9.44455 6.66672 9.44455Z" fill="#664500"/>
<path d="M13.3332 9.44455C14.1003 9.44455 14.7221 8.574 14.7221 7.50011C14.7221 6.42622 14.1003 5.55566 13.3332 5.55566C12.5662 5.55566 11.9443 6.42622 11.9443 7.50011C11.9443 8.574 12.5662 9.44455 13.3332 9.44455Z" fill="#664500"/>
</svg>
