<svg width="177" height="167" viewBox="0 0 177 167" fill="none" xmlns="http://www.w3.org/2000/svg">
<path d="M138.498 54.3177C142.309 57.4166 145.123 64.9316 145.871 68.9316C146.324 64.6742 145.032 55.1615 142.006 51.16C138.981 47.1585 133.733 50.4441 138.498 54.3177Z" fill="#FEB63B"/>
<path d="M149.023 64.6356C150.85 61.808 158.075 54.2692 159.549 57.125C161.023 59.9807 152.963 59.7023 149.023 64.6356Z" fill="#FEB63B"/>
<path d="M145.515 74.3846C148.835 70.2959 162.415 59.6847 165.727 64.2225C169.039 68.7603 152.819 67.3437 145.515 74.3846Z" fill="#FEB63B"/>
<path d="M141.922 81.3643C148.234 76.7538 171.733 66.6648 174.769 74.4288C177.805 82.1928 155.066 74.0244 141.922 81.3643Z" fill="#FEB63B"/>
<path d="M141.231 78.8867C142.722 65.6425 131.305 50.1129 127.131 54.0515C122.957 57.9901 138.185 63.4358 141.231 78.8867Z" fill="#FEB63B"/>
<path d="M137.91 85.1516C136.805 69.7971 119.489 54.2204 115.279 59.4744C111.069 64.7284 130.797 68.1211 137.91 85.1516Z" fill="#FEB63B"/>
<path d="M131.595 93.5725C130.489 78.218 113.173 62.6413 108.963 67.8953C104.753 73.1493 124.482 76.542 131.595 93.5725Z" fill="#FEB63B"/>
<path d="M125.98 101.291C124.875 85.9367 107.559 70.36 103.349 75.614C99.139 80.868 118.867 84.2608 125.98 101.291Z" fill="#FEB63B"/>
<path d="M135.43 90.509C143.176 86.2719 171.607 78.5112 174.753 87.7778C177.898 97.0443 151.431 84.2465 135.43 90.509Z" fill="#FEB63B"/>
<path d="M126.568 102.258C134.705 98.0279 164.762 90.6306 168.336 100.374C171.91 110.118 143.437 96.1179 126.568 102.258Z" fill="#FEB63B"/>
<path d="M146.936 52.6085C152.545 70.9201 126.831 101.912 114.074 114.903C145.866 86.2467 152.182 57.5398 152.182 49.406C152.182 38.8801 141.655 35.3715 146.936 52.6085Z" fill="#FEB63B"/>
<ellipse cx="92" cy="151" rx="70" ry="11" fill="#F2F2F2"/>
<path d="M78.611 30.2167L78.2496 40.8172L83.8398 40.7955L84.1136 30.6873L107.459 30.7757L107.677 40.9714L113.76 41.0372L113.136 30.2617L107.032 24.6057L83.1074 24.9221L78.611 30.2167Z" fill="#FF535B"/>
<path d="M146.749 152.534L131.021 41.0596L131.948 152.95L146.749 152.534Z" fill="#7B1618"/>
<path d="M44.3327 151.591L58.4376 40.8499L131.022 41.0603L131.948 152.95L44.3327 151.591Z" fill="#EF1C26"/>
<mask id="mask0_1384_1224" style="mask-type:alpha" maskUnits="userSpaceOnUse" x="44" y="40" width="88" height="113">
<path d="M44.3327 151.591L58.4376 40.8499L131.022 41.0603L131.948 152.95L44.3327 151.591Z" fill="#EF1C26"/>
</mask>
<g mask="url(#mask0_1384_1224)">
<g opacity="0.25">
<path d="M142.79 82.2228L137.931 82.6894C137.945 82.78 137.959 82.8753 137.974 82.9753C138.088 83.7661 138.207 84.8529 138.258 86.1767C138.361 88.8145 138.2 92.4601 137.155 96.6102C135.022 105.086 129.284 115.267 115.739 123.01C94.1812 135.335 85.3019 142.14 81.155 146.731C78.9057 149.199 73.9372 154.815 72.0576 157.538C66.8282 146.175 72.1563 136.695 75.474 133.375C78.2296 130.324 80.8961 127.983 85.2118 125.064L88.5074 86.9046L93.055 86.4678C98.5993 85.9354 103.264 90.4753 102.788 95.9396L101.087 115.449C103.281 114.185 105.686 112.807 108.336 111.293C118.175 105.668 121.733 98.8006 123.049 93.5713C123.729 90.8687 123.83 88.4972 123.765 86.8309C123.733 86.0028 123.66 85.3658 123.603 84.971C123.588 84.8669 123.546 84.4865 123.508 84.1415L123.501 84.0752L117.657 84.6364L129.53 73.4037L142.79 82.2228Z" fill="white"/>
<path d="M83.2425 147.866L82.4313 157.258L90.2076 156.512C94.5036 156.099 97.8939 152.721 98.2612 148.487L99.3719 135.682L99.3766 135.626C90.9117 141.08 86.1211 144.915 83.2425 147.866Z" fill="white"/>
<path d="M119.36 128.025L119.749 123.348C128.583 117.634 133.646 110.844 136.434 104.449L132.468 152.453L127.852 152.896C122.331 153.427 117.675 148.925 118.114 143.481L119.36 128.025Z" fill="white"/>
</g>
</g>
<circle cx="92.404" cy="78.9319" r="21.5" transform="rotate(10.0826 92.404 78.9319)" fill="white"/>
<path d="M101.152 70.533L99.9211 70.6511C99.9246 70.6741 99.9283 70.6982 99.9319 70.7235C99.9608 70.9238 99.9909 71.1991 100.004 71.5343C100.03 72.2024 99.9892 73.1257 99.7247 74.1768C99.1844 76.3235 97.7312 78.9018 94.3007 80.863C88.8407 83.9845 86.5919 85.7079 85.5416 86.8708C84.972 87.4957 83.7136 88.918 83.2376 89.6077C81.9132 86.7299 83.2626 84.3288 84.1028 83.4879C84.8007 82.7152 85.4761 82.1223 86.5691 81.3832L87.4038 71.7187L88.5555 71.6081C89.9597 71.4732 91.1412 72.623 91.0206 74.0069L90.5898 78.9481C91.1453 78.628 91.7546 78.279 92.4256 77.8954C94.9176 76.4708 95.8186 74.7315 96.1519 73.4071C96.3242 72.7226 96.3499 72.122 96.3334 71.7C96.3252 71.4903 96.3068 71.329 96.2924 71.229C96.2886 71.2026 96.2779 71.1063 96.2683 71.0189L96.2664 71.0021L94.7864 71.1442L97.7935 68.2994L101.152 70.533Z" fill="#EF1C26"/>
<path d="M86.0704 87.1581L85.8649 89.5369L87.8344 89.3478C88.9224 89.2433 89.781 88.3877 89.8741 87.3154L90.1554 84.0724L90.1566 84.058C88.0127 85.4394 86.7994 86.4108 86.0704 87.1581Z" fill="#EF1C26"/>
<path d="M95.2178 82.133L95.3163 80.9485C97.5535 79.5015 98.8359 77.7818 99.542 76.1621L98.5376 88.3199L97.3684 88.4322C95.97 88.5665 94.7909 87.4263 94.9021 86.0475L95.2178 82.133Z" fill="#EF1C26"/>
<g filter="url(#filter0_d_1384_1224)">
<circle cx="43" cy="39" r="28" fill="white"/>
<path d="M51.75 30.25L34.25 47.75" stroke="#F42F1A" stroke-width="4" stroke-linecap="round" stroke-linejoin="round"/>
<path d="M34.25 30.25L51.75 47.75" stroke="#F42F1A" stroke-width="4" stroke-linecap="round" stroke-linejoin="round"/>
</g>
<defs>
<filter id="filter0_d_1384_1224" x="0" y="0" width="86" height="86" filterUnits="userSpaceOnUse" color-interpolation-filters="sRGB">
<feFlood flood-opacity="0" result="BackgroundImageFix"/>
<feColorMatrix in="SourceAlpha" type="matrix" values="0 0 0 0 0 0 0 0 0 0 0 0 0 0 0 0 0 0 127 0" result="hardAlpha"/>
<feOffset dy="4"/>
<feGaussianBlur stdDeviation="7.5"/>
<feComposite in2="hardAlpha" operator="out"/>
<feColorMatrix type="matrix" values="0 0 0 0 0 0 0 0 0 0 0 0 0 0 0 0 0 0 0.15 0"/>
<feBlend mode="normal" in2="BackgroundImageFix" result="effect1_dropShadow_1384_1224"/>
<feBlend mode="normal" in="SourceGraphic" in2="effect1_dropShadow_1384_1224" result="shape"/>
</filter>
</defs>
</svg>
