<svg width="36" height="39" viewBox="0 0 36 39" fill="none" xmlns="http://www.w3.org/2000/svg">
<path d="M32.3093 8.51407L27.6042 16.9833H29.4376L34.7431 10.1173C35.2497 9.46159 35.1104 8.51625 34.4361 8.03462C33.7262 7.52753 32.733 7.75143 32.3093 8.51407Z" fill="#FEB63B"/>
<path d="M32.0951 16.6167H1.94242C0.867193 16.6167 -0.0229205 17.4669 0.0217624 18.5412C0.305181 25.3553 3.49115 36.05 17.3498 36.05C31.2584 36.05 34.0107 25.2782 34.0173 18.4677C34.0183 17.4215 33.1412 16.6167 32.0951 16.6167Z" fill="#FD5001"/>
<path d="M11.3962 10.6205C10.8378 12.5028 11.6289 13.7577 12.0943 14.1499C11.3962 10.9146 14.5375 9.44402 14.5375 7.09108C14.5375 5.20873 12.4433 4.34598 11.3962 4.1499C14.5375 6.50284 12.0943 8.26755 11.3962 10.6205Z" fill="white"/>
<path d="M16.5641 9.80882C15.9052 12.4441 16.8386 14.201 17.3876 14.75C16.5641 10.2206 20.2699 8.16176 20.2699 4.86765C20.2699 2.23235 17.7994 1.02451 16.5641 0.75C20.27 4.04412 17.3876 6.51471 16.5641 9.80882Z" fill="white"/>
<path d="M23.0505 11.9931C23.4973 13.499 22.8644 14.5029 22.4921 14.8167C23.0505 12.2284 20.5375 11.0519 20.5375 9.16959C20.5375 7.66371 22.2128 6.97351 23.0505 6.81665C20.5375 8.699 22.4921 10.1108 23.0505 11.9931Z" fill="white"/>
<circle opacity="0.6" cx="7.50421" cy="12" r="1.5" fill="#FEB63B"/>
<circle opacity="0.6" cx="27.0042" cy="5.5" r="1" fill="#FEB63B"/>
</svg>
