<svg width="24" height="24" viewBox="0 0 24 24" fill="none" xmlns="http://www.w3.org/2000/svg">
<path d="M23.6224 3.05324H22.1623C22.1639 3.08106 22.1654 3.11031 22.1669 3.14096C22.1782 3.38353 22.1825 3.71575 22.1601 4.11775C22.1153 4.91873 21.963 6.01695 21.5333 7.24212C20.6557 9.74439 18.6561 12.6576 14.4014 14.6067C7.62958 17.7089 4.79104 19.5096 3.42491 20.7782C2.68458 21.4593 1.04453 23.0139 0.40698 23.7831C-0.825254 20.1937 1.03239 17.4803 2.11524 16.5723C3.02301 15.7294 3.88396 15.0986 5.25248 14.3411L7.32502 2.89254H8.69162C10.3578 2.89254 11.6171 4.40153 11.319 6.04078L10.2546 11.8936C10.9439 11.5749 11.6997 11.228 12.5318 10.8468C15.6225 9.43085 16.8782 7.45671 17.4196 5.91292C17.6995 5.11507 17.7975 4.40058 17.8258 3.8946C17.8399 3.64312 17.8364 3.44831 17.8307 3.32721C17.8293 3.29528 17.8276 3.179 17.8261 3.07352L17.8259 3.05324H16.0697L19.9264 0L23.6224 3.05324Z" fill="url(#paint0_linear_132_129)"/>
<path d="M4.01407 21.1821L3.50394 24H5.84082C7.13181 24 8.23795 23.0765 8.46839 21.8062L9.16528 17.9648L9.16831 17.9477C6.49176 19.3518 4.9556 20.3731 4.01407 21.1821Z" fill="url(#paint1_linear_132_129)"/>
<path d="M15.3362 16.2289L15.5857 14.8253C18.3794 13.3535 20.0813 11.4464 21.0944 9.59265L18.5407 23.9999H17.1534C15.4942 23.9999 14.2367 22.5028 14.5231 20.8685L15.3362 16.2289Z" fill="url(#paint2_linear_132_129)"/>
<defs>
<linearGradient id="paint0_linear_132_129" x1="37.7637" y1="6.02866" x2="54.429" y2="43.7063" gradientUnits="userSpaceOnUse">
<stop stop-color="#FD5001"/>
<stop offset="1" stop-color="#EF1C26"/>
</linearGradient>
<linearGradient id="paint1_linear_132_129" x1="37.7637" y1="6.02866" x2="54.429" y2="43.7063" gradientUnits="userSpaceOnUse">
<stop stop-color="#FD5001"/>
<stop offset="1" stop-color="#EF1C26"/>
</linearGradient>
<linearGradient id="paint2_linear_132_129" x1="37.7637" y1="6.02866" x2="54.429" y2="43.7063" gradientUnits="userSpaceOnUse">
<stop stop-color="#FD5001"/>
<stop offset="1" stop-color="#EF1C26"/>
</linearGradient>
</defs>
</svg>
