<svg width="336" height="80" viewBox="0 0 336 80" fill="none" xmlns="http://www.w3.org/2000/svg">
<mask id="mask0_880_349" style="mask-type:alpha" maskUnits="userSpaceOnUse" x="0" y="0" width="336" height="80">
<rect width="336" height="80" rx="15" fill="white"/>
</mask>
<g mask="url(#mask0_880_349)">
<path d="M14.8521 46.9263C9.3641 45.6166 -1.41497 48.7794 -6.11852 50.5245C-0.982138 62.8256 10.6551 69.4663 10.9247 67.2125C11.1404 65.4095 6.85525 60.6608 4.68571 58.5118C12.2173 60.6388 17.8929 58.6758 19.7892 57.4284C18.0619 55.615 11.8329 52.8166 8.9343 51.6441C12.7446 50.5753 14.4671 48.0535 14.8521 46.9263Z" fill="#FFEFED"/>
<circle cx="2.33886" cy="53.0986" r="0.636082" transform="rotate(-110.773 2.33886 53.0986)" fill="#FD5001"/>
<circle cx="0.862784" cy="56.3799" r="0.636082" transform="rotate(-110.773 0.862784 56.3799)" fill="#FD5001"/>
<circle cx="5.6206" cy="54.5752" r="0.636082" transform="rotate(-110.773 5.6206 54.5752)" fill="#FD5001"/>
<path d="M73.0765 94.708C63.3508 96.2332 44.2959 92.5347 45.8823 65.5392C57.5909 63.4421 79.4218 66.3399 73.0765 94.708Z" fill="#FFEFED"/>
<path d="M57.6313 87.2661C59.8173 88.0002 64.7903 88.6975 67.1949 85.6145C69.5994 82.5316 68.5611 79.0082 67.7414 77.6318" stroke="#FFD5CF"/>
<path d="M51.3154 80.1606C53.5014 80.8947 58.4744 81.592 60.879 78.5091C63.2835 75.4261 62.2452 71.9027 61.4254 70.5264" stroke="#FFD5CF"/>
<path d="M71.8416 91.8422C68.4581 86.3358 58.9844 74.0479 48.1572 68.9473" stroke="#FFD5CF"/>
<path d="M203.516 91.8478C201.26 85.1737 201.558 71.2866 220.789 69.1311C223.688 77.1343 224.292 92.8821 203.516 91.8478Z" fill="#FFEFED"/>
<path d="M206.891 80.0523C206.638 81.683 206.75 85.2748 209.216 86.5967C211.682 87.9186 214.041 86.759 214.912 86.0139" stroke="#FFD5CF"/>
<path d="M211.136 74.7369C210.884 76.3676 210.995 79.9594 213.461 81.2813C215.927 82.6032 218.286 81.4435 219.157 80.6985" stroke="#FFD5CF"/>
<path d="M205.387 90.6298C208.86 87.5757 216.377 79.4039 218.661 71.1494" stroke="#FFD5CF"/>
<circle cx="9" cy="5" r="22.25" stroke="#FFD5CF" stroke-width="1.5"/>
<circle cx="318" cy="81" r="10.4" stroke="#FFD5CF" stroke-width="1.2"/>
<circle cx="34" cy="30" r="3.4" stroke="#FFD5CF" stroke-width="1.2"/>
<path d="M277.451 24.9041C282.101 18.0611 283.371 1.63768 283.424 -5.71863C263.888 -5.074 248.731 7.42747 251.681 8.96921C254.04 10.2026 262.78 6.79723 266.854 4.94037C260.021 14.1602 259.761 22.9626 260.485 26.2113C263.869 24.7861 270.946 17.7013 274.061 14.337C273.544 20.1169 276.106 23.7901 277.451 24.9041Z" fill="#FFEFED"/>
<circle cx="275.497" cy="4.53819" r="0.932726" fill="#FD5001"/>
<circle cx="279.228" cy="0.807726" r="0.932726" fill="#FD5001"/>
<circle cx="271.766" cy="0.807726" r="0.932726" fill="#FD5001"/>
<circle cx="271.766" cy="8.26964" r="0.932726" fill="#FD5001"/>
</g>
</svg>
