<svg width="20" height="20" viewBox="0 0 20 20" fill="none" xmlns="http://www.w3.org/2000/svg">
<path d="M16.5176 9.05882C16.5176 10.7012 15.4735 12.8022 14.051 14.5348C13.3498 15.3888 12.583 16.1203 11.8578 16.6327C11.1139 17.1584 10.4896 17.4 10.0588 17.4V18.6C10.8633 18.6 11.739 18.186 12.5503 17.6127C13.3802 17.0263 14.2237 16.2155 14.9784 15.2963C16.4677 13.4823 17.7176 11.1128 17.7176 9.05882H16.5176ZM10.0588 17.4C9.64015 17.4 9.02126 17.1469 8.27384 16.5857C7.54761 16.0405 6.77909 15.264 6.07587 14.3633C4.64946 12.5363 3.6 10.3411 3.6 8.69281H2.4C2.4 10.7408 3.64465 13.1993 5.13001 15.1018C5.88267 16.0658 6.72445 16.9231 7.55337 17.5454C8.3611 18.1518 9.2422 18.6 10.0588 18.6V17.4ZM3.6 8.69281C3.6 5.208 6.69589 2.6 10.0588 2.6V1.4C6.14459 1.4 2.4 4.43906 2.4 8.69281H3.6ZM10.0588 2.6C13.3997 2.6 16.5176 5.18756 16.5176 9.05882H17.7176C17.7176 4.4595 13.9951 1.4 10.0588 1.4V2.6ZM12.2824 8.58824C12.2824 9.81626 11.2868 10.8118 10.0588 10.8118V12.0118C11.9496 12.0118 13.4824 10.479 13.4824 8.58824H12.2824ZM10.0588 10.8118C8.8308 10.8118 7.83529 9.81626 7.83529 8.58824H6.63529C6.63529 10.479 8.16806 12.0118 10.0588 12.0118V10.8118ZM7.83529 8.58824C7.83529 7.36021 8.8308 6.36471 10.0588 6.36471V5.16471C8.16806 5.16471 6.63529 6.69747 6.63529 8.58824H7.83529ZM10.0588 6.36471C11.2868 6.36471 12.2824 7.36021 12.2824 8.58824H13.4824C13.4824 6.69747 11.9496 5.16471 10.0588 5.16471V6.36471Z" fill="#939497"/>
</svg>
