<svg width="40" height="40" viewBox="0 0 40 40" fill="none" xmlns="http://www.w3.org/2000/svg">
<circle cx="20" cy="20" r="20" fill="#FFF8EB"/>
<path d="M28 20V26C28 28.2091 26.2091 30 24 30H16C13.7909 30 12 28.2091 12 26V20" stroke="#FEB63B" stroke-width="1.5"/>
<path d="M24.7689 10H15.2315C13.4141 10 11.7798 11.2448 11.1049 13.143L10.3469 15.2749C10.1175 15.9202 9.95887 16.6107 10.1262 17.2749C10.5226 18.8478 11.8084 20 13.3335 20C15.1745 20 16.6669 18.3211 16.6669 16.25C16.6669 18.3211 18.1593 20 20.0002 20C21.8412 20 23.3335 18.3211 23.3335 16.25C23.3335 18.3211 24.8259 20 26.6669 20C28.192 20 29.4778 18.8478 29.8742 17.2749C30.0415 16.6107 29.8829 15.9202 29.6535 15.2749L28.8955 13.143C28.2206 11.2448 26.5863 10 24.7689 10Z" stroke="#FEB63B" stroke-width="1.5" stroke-linejoin="round"/>
<path d="M17 25C19.3561 26.3404 20.6476 26.3263 23 25" stroke="#FEB63B" stroke-width="1.5" stroke-linecap="round" stroke-linejoin="round"/>
</svg>
