<svg width="20" height="20" viewBox="0 0 20 20" fill="none" xmlns="http://www.w3.org/2000/svg">
<path d="M3.71291 11.5667L3.25566 11.1782H3.25566L3.71291 11.5667ZM4.44563 9.86541L3.84945 9.79788L4.44563 9.86541ZM15.5544 9.86542L16.1506 9.79788V9.79788L15.5544 9.86542ZM16.2871 11.5667L16.7443 11.1782L16.2871 11.5667ZM15.267 7.32836L14.6708 7.3959V7.3959L15.267 7.32836ZM4.73303 7.32836L5.32922 7.3959V7.3959L4.73303 7.32836ZM13.0618 16.0439C13.1781 15.7336 13.0209 15.3878 12.7106 15.2715C12.4003 15.1552 12.0545 15.3125 11.9382 15.6228L13.0618 16.0439ZM8.06184 15.6228C7.94555 15.3125 7.59973 15.1552 7.28944 15.2715C6.97914 15.3878 6.82187 15.7336 6.93816 16.0439L8.06184 15.6228ZM15.1416 13.5667H4.85845V14.7667H15.1416V13.5667ZM14.6708 7.3959L14.9582 9.93295L16.1506 9.79788L15.8632 7.26083L14.6708 7.3959ZM5.04182 9.93295L5.32922 7.3959L4.13685 7.26083L3.84945 9.79788L5.04182 9.93295ZM4.17017 11.9552C4.65413 11.3856 4.95717 10.6802 5.04182 9.93295L3.84945 9.79788C3.79127 10.3114 3.58331 10.7926 3.25566 11.1782L4.17017 11.9552ZM14.9582 9.93295C15.0428 10.6802 15.3459 11.3856 15.8298 11.9552L16.7443 11.1782C16.4167 10.7926 16.2087 10.3114 16.1506 9.79788L14.9582 9.93295ZM4.85845 13.5667C4.09671 13.5667 3.61748 12.6057 4.17017 11.9552L3.25566 11.1782C2.086 12.5549 3.00465 14.7667 4.85845 14.7667V13.5667ZM15.1416 14.7667C16.9954 14.7667 17.914 12.5549 16.7443 11.1782L15.8298 11.9552C16.3825 12.6057 15.9033 13.5667 15.1416 13.5667V14.7667ZM15.8632 7.26083C15.5186 4.21881 13.0099 1.9 10 1.9V3.1C12.3718 3.1 14.3917 4.93261 14.6708 7.3959L15.8632 7.26083ZM5.32922 7.3959C5.60826 4.93261 7.62818 3.1 10 3.1V1.9C6.99006 1.9 4.48145 4.21881 4.13685 7.26083L5.32922 7.3959ZM11.9382 15.6228C11.6654 16.3505 10.9138 16.9 10 16.9V18.1C11.3946 18.1 12.6068 17.2582 13.0618 16.0439L11.9382 15.6228ZM10 16.9C9.08617 16.9 8.33457 16.3505 8.06184 15.6228L6.93816 16.0439C7.39324 17.2582 8.60545 18.1 10 18.1V16.9Z" fill="#939497"/>
</svg>
