<svg fill="none" height="363" viewBox="0 0 375 363" width="375" xmlns="http://www.w3.org/2000/svg"><path d="m0-146h375v373c0 16.569-13.431 30-30 30h-315c-16.5685 0-30-13.431-30-30z" fill="#ffefed"/><g stroke="#ffd5cf"><path d="m198 262.848c17.203-27.817 70-59.523 88 43.566"/><path d="m192 259.126c9-24.905 38.3-72.068 83.5-61.475s59.833 78.183 61.5 110.655"/><path d="m185 182.783c9.167-38.461 42.6-111.4111 103-95.5222 60.4 15.8892 82.167 99.9362 85.5 139.9732"/><path d="m-12.5 70.9994c12.166667 17.3333 47.6999 46.7996 88.5 10.0002 43.5-39.2349 11-88.50022-20.5-88.00022"/><path d="m-23 58c5.1667 24.6667 46 77 110 52.5 89-34.0703 43.5-126.5 26-143.5"/><path d="m-22 112.5c57.6667 41 190.4 75.8 260-113"/></g></svg>