<svg fill="none" height="76" viewBox="0 0 83 76" width="83" xmlns="http://www.w3.org/2000/svg"><ellipse cx="41.5024" cy="68.2607" fill="#f7f7f7" rx="41.434" ry="6.98326"/><path d="m69.8315 10.1544v5.3661h2.7634v-4.622c0-.8481.4375-1.63633 1.1572-2.08504l7.9855-4.97839c.6841-.42645.8665-1.34163.3982-1.99774-.4325-.60588-1.264-.76643-1.8909-.3651l-8.7153 5.57901c-1.058.67727-1.6981 1.84693-1.6981 3.10316z" fill="#7b1618"/><path d="m52.9591 15.5206-1.4835 3.5914h27.933l-1.77-3.5914z" fill="#ff535b" stroke="#ff535b"/><path d="m75.4186 65.0019v-2.3943h-17.1588v2.3943z" fill="#ffdfa2"/><path d="m76.2497 63.0066 3.957-37.5101h-28.7311l5.5054 37.5101z" fill="#feb63b"/><path d="m49.974 19.112-1.6906 6.3847h34.3178l-1.8596-6.3847z" fill="#ffdfa2"/><circle cx="65.8415" cy="40.6603" fill="#ffdfa2" r="7.98087"/><path d="m61.8835 32.5914c-11.934-.8732-17.3431 5.2151-18.5559 8.3684l-1.0915 5.4577 7.2768 2.9108c2.5469-1.0916 7.7862-3.2746 8.3684-3.2746 3.4928-1.7464 4.1235-9.7025 4.0022-13.4623z" fill="#008e45"/><path d="m32.5307 19.6985-2.0546 16.0091h2.0546l3.7668-15.0289z" fill="#feb63b"/><path d="m36.8964 17.5156-2.0546 17.4643h2.0546l3.7669-16.3951z" fill="#feb63b"/><g stroke="#fff" stroke-opacity=".3"><path d="m46.2383 45.5314c2.3043-.3639 8.9505-3.4201 15.6451-12.7345"/><path d="m51.332 43.7122c1.8192.1213 5.7487 0 6.913-1.4554"/><path d="m54.607 40.4375c-.4851-.9703-1.1643-3.4201 0-5.4576"/></g><circle cx="18.3084" cy="41.5292" fill="#fd5001" r="15.2813"/><path d="m13.557 31.3416c-2.8121 1.2462-7.79637 5.8667-5.23637 14.3792 3.19997 10.6405 21.52737 5.7516 20.65467-4.0262-.8728-9.7778-10.7637-10.6406-13.3819-8.9151s-4.6545 3.1634-4.9455 8.0523c-.2909 4.889 4.3637 11.2158 11.6364 7.4772 7.2728-3.7386 3.491-13.4998-2.9091-13.5164-6.4-.0166-7.5636 7.7647-3.7818 10.0654s6.6909-1.4379 6.4-3.7386c-.2909-2.3006-2.0363-2.8758-3.4909-2.5882-1.4545.2876-2.3273 2.0131-.8727 3.1634" stroke="#7b1618" stroke-linecap="round"/><path d="m28.1655 40.1443c-5.2922 0-6.8358 4.3191-6.946 6.4786h29.1073c-.2646-4.4053-4.0795-5.7228-5.9538-5.8308-.1102-1.9435-1.72-6.0897-7.2768-7.1263-5.5569-1.0365-8.2691 3.8871-8.9307 6.4785z" fill="#04994c"/><path d="m1.57178 55.5136v-9.4598h57.72172v8.0045c0 13.9715-11.4003 16.9792-17.1005 16.7367h-22.793c-14.26258 0-17.82822-10.1876-17.82822-15.2814z" fill="#ef1c26"/><path d="m1.57178 50.0666v-4.1713h57.72172v4.2572z" fill="#ff535b"/></svg>