<svg width="262" height="92" viewBox="0 0 262 92" fill="none" xmlns="http://www.w3.org/2000/svg">
<path d="M134.577 27.0416L117.247 66.0121C115.725 69.4338 112.329 71.6392 108.581 71.6392L-nan -nanL108.581 71.6392C103.596 71.6392 99.4625 67.7845 99.12 62.8172L97.7917 43.5527L89.0589 65.3447C87.5354 69.1465 83.8487 71.6392 79.7492 71.6392L-nan -nanL79.7492 71.6392C74.5845 71.6392 70.2645 67.7207 69.7677 62.5854L66.3292 27.0416H71.7469C75.8379 27.0416 79.2602 30.1449 79.6549 34.2126L81.5071 54.256L90.6461 31.868C91.8941 28.9412 94.771 27.0416 97.9557 27.0416H108.041L110.027 54.256L119.683 31.7375C120.962 28.8807 123.803 27.0416 126.936 27.0416H134.577Z" fill="url(#paint0_linear_111_228)"/>
<path d="M129.353 49.1055C130.148 44.5552 131.71 40.5604 134.041 37.1212C136.371 33.682 139.179 31.0364 142.463 29.1845C145.747 27.3326 149.216 26.4067 152.871 26.4067C155.996 26.4067 158.618 27.0416 160.736 28.3115C162.855 29.5814 164.391 31.248 165.344 33.3116C165.987 29.5202 169.274 26.7453 173.123 26.7453H180.245L174.507 60.5343L174.029 63.9977C173.806 67.2886 173.703 68.9131 175.464 71.3282H165.685C162.394 71.3282 159.97 68.2543 160.739 65.0582C159.044 67.1217 155.943 68.7884 153.347 70.0583C150.752 71.3282 147.892 71.9631 144.767 71.9631C141.642 71.9631 138.861 71.2488 136.424 69.8202C134.041 68.3916 132.187 66.381 130.863 63.7883C129.539 61.1428 128.876 58.0475 128.876 54.5024C128.876 52.8093 129.035 51.0103 129.353 49.1055ZM162.564 49.1849C162.723 48.2325 162.802 47.3595 162.802 46.5658C162.802 43.9732 162.034 41.9361 160.498 40.4546C159.015 38.9731 157.108 38.2323 154.777 38.2323C152.076 38.2323 149.613 39.2112 147.388 41.1689C145.164 43.0737 143.76 45.7192 143.178 49.1055C143.019 50.0579 142.939 50.931 142.939 51.7246C142.939 54.3173 143.681 56.3808 145.164 57.9152C146.7 59.3967 148.607 60.1375 150.884 60.1375C153.586 60.1375 156.049 59.1586 158.273 57.2009C160.498 55.2432 161.928 52.5712 162.564 49.1849Z" fill="url(#paint1_linear_111_228)"/>
<path d="M237.37 60.1375H247.133C252.098 60.1375 255.846 64.6358 254.946 69.5134L254.611 71.3282H220.209L221.301 65.3944C221.883 62.2293 223.415 59.3157 225.693 57.0401L244.521 38.2323H235.682C230.754 38.2323 227.014 33.7962 227.853 28.9447L228.233 26.7453H262L260.961 32.7887C260.397 36.07 258.814 39.0909 256.437 41.4243L237.37 60.1375Z" fill="url(#paint2_linear_111_228)"/>
<path d="M185.026 26.7248L179.999 56.2894L179.981 56.684C179.872 59.0659 180.272 61.9834 181.812 64.6772C183.452 67.546 186.21 69.8186 190.008 70.7419C193.598 71.6149 197.638 71.1738 201.981 69.7632C202.899 69.4653 202.523 69.584 203.505 69.1859L203.527 69.5911C202.258 73.6756 200.365 76.9222 197.162 78.26C194.467 79.3857 189.105 79.8668 179.173 75.305C175.187 73.4738 170.346 74.7029 168.148 78.4963L165.76 82.6174C181.399 91.6622 193.193 93.6816 202.066 89.9757C210.924 86.2758 214.306 77.9106 215.805 72.9032L215.907 72.5622L224.188 26.7248H217.4C213.593 26.7248 210.321 29.4219 209.599 33.1554L206.421 49.5793C205.992 51.7969 204.624 53.7088 202.757 54.9827C200.87 56.2699 199.749 57.1354 198.051 57.6867C195.028 58.6684 193.525 58.5276 193.014 58.4035C192.929 58.3827 192.871 58.3627 192.834 58.348C192.781 58.2362 192.694 57.9694 192.679 57.5625L196.432 36.0223C197.277 31.1679 193.537 26.7248 188.604 26.7248H185.026Z" fill="url(#paint3_linear_111_228)"/>
<path d="M70.281 9.0743H65.9369C65.9417 9.15697 65.9463 9.24391 65.9505 9.335C65.9842 10.0559 65.9971 11.0433 65.9302 12.2381C65.7971 14.6186 65.3439 17.8825 64.0655 21.5238C61.4545 28.9605 55.5052 37.6185 42.8467 43.4114C22.6994 52.6314 14.2542 57.9831 10.1897 61.7533C7.98712 63.7776 3.10768 68.3978 1.21084 70.684C-2.45528 60.0161 3.07154 51.9519 6.29322 49.2533C8.99401 46.7481 11.5555 44.8734 15.6271 42.6222L21.7933 8.5967H25.8592C30.8162 8.5967 34.5629 13.0814 33.676 17.9533L30.5094 35.3482C32.56 34.401 34.8087 33.3697 37.2844 32.2368C46.4798 28.0287 50.2158 22.1615 51.8266 17.5733C52.6591 15.2021 52.9509 13.0786 53.0351 11.5748C53.0769 10.8274 53.0665 10.2485 53.0497 9.88855C53.0453 9.79366 53.0404 9.44806 53.036 9.13456L53.036 9.1335L53.0352 9.0743H47.8102L59.2847 0L70.281 9.0743Z" fill="url(#paint4_linear_111_228)"/>
<path d="M11.9426 62.9536L10.4249 71.3285H17.3775C21.2184 71.3285 24.5094 68.5838 25.195 64.8086L27.2684 53.3917L27.2774 53.3411C19.3142 57.5141 14.7438 60.5492 11.9426 62.9536Z" fill="url(#paint5_linear_111_228)"/>
<path d="M45.628 48.2327L46.3704 44.0611C54.682 39.6869 59.7457 34.0188 62.7596 28.5096L55.1621 71.3284H51.0346C46.0982 71.3284 42.3566 66.8788 43.2088 62.0216L45.628 48.2327Z" fill="url(#paint6_linear_111_228)"/>
<defs>
<linearGradient id="paint0_linear_111_228" x1="112.354" y1="17.9173" x2="161.848" y2="129.935" gradientUnits="userSpaceOnUse">
<stop stop-color="#FD5001"/>
<stop offset="1" stop-color="#EF1C26"/>
</linearGradient>
<linearGradient id="paint1_linear_111_228" x1="112.354" y1="17.9173" x2="161.848" y2="129.935" gradientUnits="userSpaceOnUse">
<stop stop-color="#FD5001"/>
<stop offset="1" stop-color="#EF1C26"/>
</linearGradient>
<linearGradient id="paint2_linear_111_228" x1="112.354" y1="17.9173" x2="161.848" y2="129.935" gradientUnits="userSpaceOnUse">
<stop stop-color="#FD5001"/>
<stop offset="1" stop-color="#EF1C26"/>
</linearGradient>
<linearGradient id="paint3_linear_111_228" x1="112.354" y1="17.9173" x2="161.848" y2="129.935" gradientUnits="userSpaceOnUse">
<stop stop-color="#FD5001"/>
<stop offset="1" stop-color="#EF1C26"/>
</linearGradient>
<linearGradient id="paint4_linear_111_228" x1="112.354" y1="17.9173" x2="161.848" y2="129.935" gradientUnits="userSpaceOnUse">
<stop stop-color="#FD5001"/>
<stop offset="1" stop-color="#EF1C26"/>
</linearGradient>
<linearGradient id="paint5_linear_111_228" x1="112.354" y1="17.9173" x2="161.848" y2="129.935" gradientUnits="userSpaceOnUse">
<stop stop-color="#FD5001"/>
<stop offset="1" stop-color="#EF1C26"/>
</linearGradient>
<linearGradient id="paint6_linear_111_228" x1="112.354" y1="17.9173" x2="161.848" y2="129.935" gradientUnits="userSpaceOnUse">
<stop stop-color="#FD5001"/>
<stop offset="1" stop-color="#EF1C26"/>
</linearGradient>
</defs>
</svg>
