<svg width="203" height="175" viewBox="0 0 203 175" fill="none" xmlns="http://www.w3.org/2000/svg">
<path d="M164.497 62.3182C168.309 65.417 171.123 72.932 171.87 76.9321C172.324 72.6746 171.031 63.1619 168.006 59.1604C164.98 55.1589 159.732 58.4446 164.497 62.3182Z" fill="#FEB63B"/>
<path d="M175.023 72.6356C176.85 69.808 184.075 62.2692 185.549 65.125C187.023 67.9807 178.963 67.7023 175.023 72.6356Z" fill="#FEB63B"/>
<path d="M171.515 82.3846C174.835 78.2959 188.415 67.6847 191.727 72.2225C195.039 76.7603 178.819 75.3437 171.515 82.3846Z" fill="#FEB63B"/>
<path d="M167.922 89.3642C174.233 84.7536 197.733 74.6646 200.768 82.4286C203.804 90.1926 181.066 82.0242 167.922 89.3642Z" fill="#FEB63B"/>
<path d="M167.23 86.8864C168.722 73.6422 157.305 58.1126 153.13 62.0513C148.956 65.9899 164.184 71.4355 167.23 86.8864Z" fill="#FEB63B"/>
<path d="M163.91 93.1519C162.804 77.7974 145.488 62.2207 141.278 67.4747C137.068 72.7287 156.797 76.1214 163.91 93.1519Z" fill="#FEB63B"/>
<path d="M157.594 101.573C156.489 86.2181 139.173 70.6414 134.963 75.8954C130.753 81.1494 150.481 84.5421 157.594 101.573Z" fill="#FEB63B"/>
<path d="M151.98 109.292C150.875 93.9371 133.559 78.3604 129.349 83.6144C125.139 88.8684 144.867 92.2611 151.98 109.292Z" fill="#FEB63B"/>
<path d="M161.43 98.5091C169.177 94.272 197.608 86.5113 200.753 95.7778C203.898 105.044 177.431 92.2466 161.43 98.5091Z" fill="#FEB63B"/>
<path d="M152.568 110.258C160.705 106.028 190.762 98.6306 194.336 108.374C197.91 118.118 169.437 104.118 152.568 110.258Z" fill="#FEB63B"/>
<path d="M172.935 60.6085C178.545 78.9201 152.831 109.912 140.074 122.903C171.865 94.2467 178.182 65.5398 178.182 57.406C178.182 46.8801 167.655 43.3715 172.935 60.6085Z" fill="#FEB63B"/>
<ellipse cx="118" cy="159" rx="70" ry="11" fill="#F2F2F2"/>
<path d="M104.611 38.217L104.25 48.8174L109.84 48.7957L110.114 38.6876L133.459 38.7759L133.677 48.9716L139.76 49.0374L139.136 38.2619L133.032 32.606L109.107 32.9224L104.611 38.217Z" fill="#FF535B"/>
<path d="M172.749 160.535L157.021 49.0598L157.948 160.95L172.749 160.535Z" fill="#7B1618"/>
<path d="M70.3327 159.59L84.4376 48.8494L157.022 49.0598L157.948 160.95L70.3327 159.59Z" fill="#EF1C26"/>
<mask id="mask0_408_1916" style="mask-type:alpha" maskUnits="userSpaceOnUse" x="70" y="48" width="88" height="113">
<path d="M70.3327 159.59L84.4376 48.8494L157.022 49.0598L157.948 160.95L70.3327 159.59Z" fill="#EF1C26"/>
</mask>
<g mask="url(#mask0_408_1916)">
<g opacity="0.25">
<path d="M168.79 90.2228L163.931 90.6894C163.945 90.78 163.959 90.8753 163.974 90.9753C164.088 91.7661 164.207 92.8529 164.258 94.1767C164.361 96.8145 164.2 100.46 163.155 104.61C161.022 113.086 155.284 123.267 141.739 131.01C120.181 143.335 111.302 150.14 107.155 154.731C104.906 157.199 99.9372 162.815 98.0576 165.538C92.8282 154.175 98.1563 144.695 101.474 141.375C104.23 138.324 106.896 135.983 111.212 133.064L114.507 94.9046L119.055 94.4678C124.599 93.9354 129.264 98.4753 128.788 103.94L127.087 123.449C129.281 122.185 131.686 120.807 134.336 119.293C144.175 113.668 147.733 106.801 149.049 101.571C149.729 98.8687 149.83 96.4972 149.765 94.8309C149.733 94.0028 149.66 93.3658 149.603 92.971C149.588 92.8669 149.546 92.4865 149.508 92.1415L149.501 92.0752L143.657 92.6364L155.53 81.4037L168.79 90.2228Z" fill="white"/>
<path d="M109.243 155.866L108.431 165.258L116.208 164.512C120.504 164.099 123.894 160.721 124.261 156.487L125.372 143.682L125.377 143.626C116.912 149.08 112.121 152.915 109.243 155.866Z" fill="white"/>
<path d="M145.36 136.025L145.749 131.348C154.583 125.634 159.646 118.844 162.434 112.449L158.468 160.453L153.852 160.896C148.331 161.427 143.675 156.925 144.114 151.481L145.36 136.025Z" fill="white"/>
</g>
</g>
<circle cx="118.404" cy="86.9319" r="21.5" transform="rotate(10.0826 118.404 86.9319)" fill="white"/>
<path d="M127.152 78.5327L125.921 78.6509C125.925 78.6738 125.928 78.698 125.932 78.7233C125.961 78.9236 125.991 79.1988 126.004 79.5341C126.03 80.2021 125.989 81.1255 125.725 82.1765C125.184 84.3232 123.731 86.9016 120.301 88.8628C114.841 91.9842 112.592 93.7077 111.542 94.8705C110.972 95.4955 109.714 96.9177 109.238 97.6074C107.913 94.7297 109.263 92.3285 110.103 91.4877C110.801 90.715 111.476 90.1221 112.569 89.383L113.404 79.7184L114.556 79.6078C115.96 79.473 117.141 80.6228 117.021 82.0067L116.59 86.9479C117.145 86.6277 117.755 86.2787 118.426 85.8952C120.918 84.4705 121.819 82.7313 122.152 81.4069C122.324 80.7224 122.35 80.1218 122.333 79.6998C122.325 79.49 122.307 79.3287 122.292 79.2287C122.289 79.2024 122.278 79.106 122.268 79.0186L122.266 79.0018L120.786 79.144L123.793 76.2991L127.152 78.5327Z" fill="#EF1C26"/>
<path d="M112.07 95.1579L111.865 97.5367L113.834 97.3476C114.922 97.2431 115.781 96.3875 115.874 95.3151L116.155 92.0722L116.157 92.0578C114.013 93.4391 112.799 94.4106 112.07 95.1579Z" fill="#EF1C26"/>
<path d="M121.218 90.1328L121.316 88.9483C123.553 87.5013 124.836 85.7815 125.542 84.1619L124.538 96.3196L123.368 96.4319C121.97 96.5662 120.791 95.4261 120.902 94.0472L121.218 90.1328Z" fill="#EF1C26"/>
<g filter="url(#filter0_d_408_1916)">
<path d="M60.3306 20.0447C61.7015 19.3845 63.2985 19.3845 64.6694 20.0447L90.4311 32.4509C91.802 33.1111 92.7977 34.3597 93.1363 35.8431L99.4989 63.7196C99.8375 65.203 99.4822 66.76 98.5334 67.9496L80.7058 90.3047C79.7571 91.4944 78.3183 92.1873 76.7966 92.1873H48.2033C46.6817 92.1873 45.2429 91.4944 44.2942 90.3048L26.4666 67.9496C25.5178 66.76 25.1625 65.203 25.5011 63.7196L31.8637 35.8431C32.2023 34.3597 33.198 33.1111 34.5689 32.4509L60.3306 20.0447Z" fill="#04994C"/>
</g>
<path d="M48.4443 56.5267L60.0328 66.6666L77.4155 47.1111" stroke="white" stroke-width="4" stroke-linecap="round" stroke-linejoin="round"/>
<defs>
<filter id="filter0_d_408_1916" x="0.375488" y="0.549561" width="124.249" height="122.638" filterUnits="userSpaceOnUse" color-interpolation-filters="sRGB">
<feFlood flood-opacity="0" result="BackgroundImageFix"/>
<feColorMatrix in="SourceAlpha" type="matrix" values="0 0 0 0 0 0 0 0 0 0 0 0 0 0 0 0 0 0 127 0" result="hardAlpha"/>
<feOffset dy="6"/>
<feGaussianBlur stdDeviation="12.5"/>
<feComposite in2="hardAlpha" operator="out"/>
<feColorMatrix type="matrix" values="0 0 0 0 0.0156863 0 0 0 0 0.6 0 0 0 0 0.298039 0 0 0 0.2 0"/>
<feBlend mode="normal" in2="BackgroundImageFix" result="effect1_dropShadow_408_1916"/>
<feBlend mode="normal" in="SourceGraphic" in2="effect1_dropShadow_408_1916" result="shape"/>
</filter>
</defs>
</svg>
